<svg version="1" xmlns="http://www.w3.org/2000/svg" width="1365.333" height="1365.333" viewBox="0 0 1024.000000 1024.000000"><path d="M0 512v512h1024V0H0v512zm365.7-275.5c68 8.7 116.8 46.4 139.7 107.8 3.7 9.9 8.6 26.9 8.6 29.8 0 1.3-8.9 3.8-45.2 12.8-24.9 6.1-45.7 11.1-46.3 11.1-.5 0-2.3-3.9-3.8-8.8-11.2-35.2-31.5-56.6-62.4-65.8-11.9-3.5-35.3-4.5-48.7-2-35.4 6.7-59.4 31.3-74.1 75.9-10.1 30.9-14.5 66-14.5 116.8 0 41.2 2.8 69.9 9.5 96.5 15.2 60.3 47.1 88.4 100.5 88.5 30.1 0 52.5-8.1 71.3-25.9 14-13.4 25.2-30.9 30.3-47.5 1-3.1 2.2-5.7 2.8-5.7 1.4 0 92 25.1 92.6 25.7 1 .9-7.4 23.1-13.6 36.3-15.3 32-35.7 55.7-63.9 74.5-33.7 22.5-70.9 32.6-120 32.7-22.4 0-35.3-1.2-53.1-4.7-29.9-6-58.2-19-79.4-36.5-37.7-31.1-63.6-81.9-74.5-146.2-4.4-26.1-5.6-41.7-6.2-77.3-.7-45 1.2-70 7.8-104.2 17.4-89.5 65.9-151.7 136.3-174.8 11.8-3.9 30.5-7.9 43.1-9.3 13.6-1.6 50.1-1.4 63.2.3zm320.5 101.6l.3 96 9-7.2c24.5-19.6 48.9-32.5 72.9-38.6 13.7-3.4 41-4.4 56.5-1.9 46.7 7.4 71.4 34 81.9 88.1 1.3 6.9 1.6 27.6 1.9 157.3l.4 149.2-45.3-.2-45.3-.3-.5-138c-.6-127.5-.7-138.6-2.4-145.4-4.4-18.7-10.9-28.2-23.1-33.7-5.3-2.5-7.4-2.9-18.5-3.2-14.2-.5-24.5 1.4-37.2 6.8-12.9 5.5-29.8 16.9-45 30.4l-5.8 5.1V781l-45.2-.2-45.3-.3-.3-269.3L595 242h91l.2 96.1z"/></svg>